<svg width="96" height="96" viewBox="0 0 96 96" fill="none" xmlns="http://www.w3.org/2000/svg">
<path d="M42.5615 85.9923C41.2755 87.2778 39.5317 88 37.7134 88C35.8951 88 34.1513 87.2778 32.8653 85.9923L2.00772 55.1347C0.722187 53.8487 8.86009e-06 52.1049 9.01906e-06 50.2866C9.17802e-06 48.4683 0.722187 46.7245 2.00772 45.4385L32.8653 14.5809C34.1586 13.3318 35.8908 12.6406 37.6887 12.6563C39.4867 12.6719 41.2066 13.3931 42.4779 14.6645C43.7493 15.9358 44.4705 17.6557 44.4861 19.4537C44.5018 21.2516 43.8106 22.9838 42.5615 24.2771L23.9989 43.4294L89.1428 43.4294C90.9614 43.4294 92.7056 44.1518 93.9916 45.4378C95.2775 46.7238 96 48.468 96 50.2866C96 52.1053 95.2775 53.8494 93.9916 55.1354C92.7056 56.4214 90.9614 57.1439 89.1428 57.1439L23.9989 57.1438L42.5615 76.2961C43.847 77.5821 44.5692 79.3259 44.5692 81.1442C44.5692 82.9625 43.847 84.7064 42.5615 85.9923Z" fill="#D4DEC7"/>
</svg>
