<svg width="37" height="29" viewBox="0 0 37 29" fill="none" xmlns="http://www.w3.org/2000/svg">
<path id="Vector" d="M11.9134 20.0634L5.96931 14.1193C5.4234 13.5734 4.68299 13.2667 3.91096 13.2667C3.13892 13.2667 2.39851 13.5734 1.8526 14.1193C1.30669 14.6652 1 15.4056 1 16.1776C1 16.5599 1.0753 16.9384 1.22158 17.2916C1.36787 17.6448 1.58229 17.9657 1.8526 18.236L9.86427 26.2477C11.0023 27.3857 12.843 27.3857 13.981 26.2477L34.2593 5.96931C34.8052 5.4234 35.1119 4.68298 35.1119 3.91096C35.1119 3.13893 34.8052 2.39851 34.2593 1.8526C33.7134 1.30669 32.973 1 32.201 1C31.4289 1 30.6885 1.30669 30.1426 1.8526L11.9134 20.0634Z" fill="white" stroke="white" stroke-width="2"/>
</svg>
