<?xml version="1.0" encoding="UTF-8"?>
<svg id="_레이어_1" data-name="레이어 1" xmlns="http://www.w3.org/2000/svg" viewBox="0 0 472 1204">
  <defs>
    <style>
      .cls-1 {
        fill: #2b6652;
      }

      .cls-1, .cls-2 {
        stroke-width: 0px;
      }

      .cls-2 {
        fill: #aee5d1;
      }
    </style>
  </defs>
  <path class="cls-1" d="m0,0v1204h472V0H0Zm458,1048.86H14v-250h444v250Zm0-262.9H14v-250h444v250Zm0-262.9H14v-250h444v250Zm0-262.9H14V10.17h444v250Z"/>
  <g>
    <path class="cls-2" d="m69.25,1131.71c0,1.07-.21,2.08-.62,3.03-.41.94-.97,1.77-1.69,2.48-.71.71-1.55,1.27-2.5,1.67-.95.41-1.97.61-3.05.61h-21.01c-1.08,0-2.11-.2-3.08-.62-.97-.41-1.81-.96-2.53-1.65-.71-.69-1.28-1.51-1.69-2.46-.41-.95-.62-1.98-.62-3.11v-28.93c0-1.08.21-2.1.62-3.07.41-.97.97-1.8,1.69-2.49.71-.69,1.55-1.24,2.53-1.65.97-.41,2-.62,3.08-.62h21.01c1.08,0,2.1.21,3.05.62.95.41,1.78.97,2.5,1.68.71.71,1.27,1.54,1.69,2.49.41.95.62,1.96.62,3.04v12.62c0,.86-.3,1.6-.91,2.2-.61.6-1.34.91-2.21.91h-9.49c-.87,0-1.61-.3-2.24-.91-.63-.6-.94-1.34-.94-2.2v-2.07h-5.18v18.38h5.18v-2.11c0-.85.31-1.59.94-2.21.63-.62,1.38-.93,2.24-.93h9.49c.87,0,1.6.31,2.21.93.61.62.91,1.36.91,2.22v2.12Zm-9.58-34.86c0-.43-.22-.65-.65-.65h-18.64c-.91,0-1.76.17-2.56.52-.8.35-1.5.81-2.1,1.39-.6.58-1.08,1.27-1.42,2.07s-.52,1.65-.52,2.56v25.44c0,.43.22.65.65.65.17,0,.33-.05.49-.16.15-.11.23-.27.23-.49v-25.44c0-1.42.52-2.65,1.55-3.69,1.04-1.04,2.26-1.55,3.69-1.55h18.64c.43,0,.65-.21.65-.65Zm-24.53,33.91c0-.22-.08-.38-.23-.49-.15-.11-.31-.16-.49-.16-.43,0-.65.22-.65.65,0,.17.05.33.16.49.11.15.27.23.49.23.47,0,.71-.24.71-.71Zm22.13-14.24c0-.22-.07-.37-.19-.45-.13-.09-.26-.14-.39-.16-.13-.02-.26-.06-.39-.13-.13-.07-.19-.21-.19-.42v-2.07c0-.43-.23-.65-.68-.65s-.68.22-.68.65v2.07c0,.52.18.95.54,1.29.36.35.81.52,1.33.52.43,0,.65-.21.65-.65Zm8.67,11.84c0-.43-.22-.65-.65-.65h-8.74c-.52,0-.95.17-1.29.52s-.52.78-.52,1.29v1.62c0,.43.22.65.65.65.34,0,.54-.14.58-.42s.05-.6.03-.97c-.02-.37-.01-.69.03-.97.04-.28.21-.42.52-.42h8.74c.43,0,.65-.22.65-.65Zm-9.84,4.79c0-.43-.23-.65-.68-.65s-.68.22-.68.65.23.65.68.65.68-.22.68-.65Z"/>
    <path class="cls-2" d="m108.79,1131.61c0,1.08-.21,2.1-.62,3.07-.41.97-.97,1.81-1.69,2.52-.71.71-1.55,1.27-2.5,1.68-.95.41-1.97.62-3.05.62h-21.01c-1.08,0-2.11-.2-3.08-.62-.97-.41-1.81-.97-2.53-1.68-.71-.71-1.28-1.55-1.69-2.52-.41-.97-.62-2-.62-3.07v-28.87c0-1.08.21-2.1.62-3.07.41-.97.97-1.8,1.69-2.49.71-.69,1.55-1.24,2.53-1.65.97-.41,2-.62,3.08-.62h21.01c1.08,0,2.1.21,3.05.62.95.41,1.78.97,2.5,1.68.71.71,1.27,1.54,1.69,2.49.41.95.62,1.96.62,3.04v28.87Zm-9.58-34.76c0-.43-.22-.65-.65-.65h-18.64c-.91,0-1.76.17-2.56.52-.8.35-1.5.81-2.1,1.39-.6.58-1.08,1.27-1.42,2.07s-.52,1.65-.52,2.56v17.73c0,.43.22.65.65.65s.65-.21.65-.65v-17.73c0-1.47.52-2.71,1.55-3.72,1.04-1.01,2.29-1.52,3.75-1.52h18.64c.43,0,.65-.21.65-.65Zm-24.59,26.21c0-.43-.22-.65-.65-.65s-.65.22-.65.65.22.65.65.65.65-.21.65-.65Zm14.43,10.55c0-.43-.24-.65-.71-.65-.43,0-.65.22-.65.65s.22.65.65.65c.17,0,.33-.05.49-.16.15-.11.23-.27.23-.49Zm3.95-1.94v-18.38h-5.24v18.38h5.24Zm2.65,2.59v-20.32c0-.43-.24-.65-.71-.65-.43,0-.65.22-.65.65v19.03h-4.21c-.43,0-.65.22-.65.65s.22.65.65.65h5.57Z"/>
    <path class="cls-2" d="m148.4,1100.15v34.11c0,1.47-.51,2.71-1.53,3.72-1.02,1.01-2.26,1.52-3.73,1.52h-6.75c-1.12,0-2.14-.33-3.05-1-.91-.67-1.54-1.54-1.88-2.62l-4.09-12.17v10.55c0,1.47-.51,2.71-1.52,3.72-1.01,1.01-2.26,1.52-3.72,1.52h-5.24c-1.47,0-2.71-.51-3.72-1.52-1.01-1.01-1.52-2.25-1.52-3.72v-34.11c0-1.47.51-2.71,1.52-3.72,1.01-1.01,2.25-1.52,3.72-1.52h6.41c1.17,0,2.23.38,3.2,1.13.97.76,1.61,1.69,1.91,2.82l4.21,17.02v-15.73c0-1.47.51-2.71,1.53-3.72,1.02-1.01,2.26-1.52,3.74-1.52h5.26c1.47,0,2.72.51,3.74,1.52,1.02,1.01,1.53,2.25,1.53,3.72Zm-27.51-3.3c0-.43-.22-.65-.65-.65h-3.37c-1.12,0-2.06.38-2.82,1.13s-1.13,1.69-1.13,2.82v29.25c0,.43.22.65.65.65s.65-.22.65-.65v-29.25c0-.73.26-1.36.78-1.88.52-.52,1.14-.78,1.88-.78h3.37c.43,0,.65-.21.65-.65Zm-6.67,34.88c0-.43-.22-.65-.65-.65s-.65.22-.65.65c0,.48.22.71.65.71s.65-.24.65-.71Zm25.05,5.83c0-.43-.23-.66-.68-.68-.45-.02-.97-.03-1.55-.03s-1.18-.1-1.78-.29c-.61-.19-1.04-.7-1.29-1.52l-3.56-10.74c-.04-.09-.14-.17-.29-.26-.15-.09-.27-.13-.36-.13-.43,0-.65.22-.65.65,0,.04.09.32.26.84.17.52.38,1.16.61,1.91.24.76.51,1.58.81,2.46.3.88.58,1.73.84,2.52.26.8.5,1.5.71,2.1.22.61.34.97.39,1.1.26.82.72,1.48,1.39,1.97.67.5,1.43.75,2.3.75h2.2c.43,0,.65-.22.65-.65Zm2.65-40.71c0-.21-.08-.38-.23-.49-.15-.11-.31-.16-.49-.16h-3.37c-1.08,0-2.01.39-2.78,1.17-.78.78-1.17,1.7-1.17,2.78v13.14c0,.43.21.65.65.65.17,0,.33-.05.49-.16.15-.11.23-.27.23-.49v-13.14c0-.73.25-1.36.74-1.88.5-.52,1.11-.78,1.84-.78h3.37c.47,0,.71-.21.71-.65Zm-6.67,18.77c0-.43-.24-.65-.71-.65-.43,0-.65.22-.65.65s.21.65.65.65c.17,0,.33-.05.49-.16.15-.11.23-.27.23-.49Z"/>
    <path class="cls-2" d="m188.01,1131.64c0,1.08-.21,2.1-.62,3.06-.41.97-.97,1.81-1.68,2.52s-1.55,1.27-2.52,1.68c-.97.41-2,.61-3.07.61h-20.97c-1.12,0-2.16-.2-3.11-.62-.95-.41-1.78-.97-2.49-1.68s-1.27-1.54-1.68-2.49c-.41-.95-.62-1.98-.62-3.11v-28.8c0-1.08.2-2.1.62-3.07.41-.97.97-1.81,1.68-2.52s1.54-1.27,2.49-1.68,1.98-.62,3.11-.62h20.97c1.08,0,2.1.21,3.07.62s1.81.97,2.52,1.68,1.27,1.55,1.68,2.52c.41.97.62,2,.62,3.07v12.56c0,.86-.31,1.61-.94,2.23s-1.37.94-2.23.94h-9.45c-.86,0-1.6-.31-2.2-.94-.6-.62-.91-1.37-.91-2.23v-2.14h-5.24v18.38h5.24v-2.07h-1.23c-.78,0-1.35-.17-1.71-.51-.37-.34-.62-.78-.75-1.32-.13-.53-.19-1.1-.19-1.7v-1.67c0-.86.31-1.59.94-2.22.62-.62,1.37-.93,2.23-.93h13.27c.86,0,1.61.31,2.23.94.62.62.94,1.37.94,2.22v7.29Zm-9.58-34.78c0-.43-.22-.65-.65-.65h-18.64c-.91,0-1.76.17-2.56.52-.8.35-1.49.82-2.08,1.42-.59.6-1.06,1.31-1.42,2.1-.36.8-.54,1.65-.54,2.56v23.56c0,.43.23.65.68.65s.68-.21.68-.65v-23.56c0-1.47.51-2.72,1.52-3.75,1.01-1.04,2.25-1.55,3.72-1.55h18.64c.43,0,.65-.21.65-.65Zm-24.53,32.17c0-.17-.06-.33-.17-.49s-.28-.23-.51-.23c-.45,0-.68.24-.68.71,0,.43.23.65.68.65s.68-.21.68-.65Zm29-5.89c0-.43-.24-.65-.71-.65h-10.61c-.52,0-.96.17-1.33.52-.37.35-.55.78-.55,1.29v2.07c0,.43.24.65.71.65.39,0,.6-.17.65-.52.04-.34.04-.71,0-1.1-.04-.39-.05-.75-.03-1.1.02-.35.2-.52.55-.52h10.61c.17,0,.33-.05.49-.16.15-.11.23-.27.23-.49Zm-6.86-6.6c0-.22-.06-.37-.19-.45-.13-.09-.26-.15-.39-.19-.13-.04-.26-.09-.39-.13-.13-.04-.19-.17-.19-.39v-2.14c0-.43-.22-.65-.65-.65s-.65.22-.65.65v2.14c0,.52.17.95.52,1.29.34.35.78.52,1.29.52.43,0,.65-.21.65-.65Z"/>
    <path class="cls-2" d="m236.49,1131.71c0,1.07-.21,2.08-.62,3.03-.41.94-.97,1.77-1.69,2.48-.71.71-1.55,1.27-2.5,1.67-.95.41-1.97.61-3.05.61h-21.01c-1.08,0-2.11-.2-3.08-.62-.97-.41-1.81-.96-2.53-1.65-.71-.69-1.28-1.51-1.69-2.46-.41-.95-.62-1.98-.62-3.11v-28.93c0-1.08.21-2.1.62-3.07.41-.97.97-1.8,1.69-2.49.71-.69,1.55-1.24,2.53-1.65.97-.41,2-.62,3.08-.62h21.01c1.08,0,2.1.21,3.05.62.95.41,1.78.97,2.5,1.68.71.71,1.27,1.54,1.69,2.49.41.95.62,1.96.62,3.04v12.62c0,.86-.3,1.6-.91,2.2-.61.6-1.34.91-2.21.91h-9.49c-.87,0-1.61-.3-2.24-.91-.63-.6-.94-1.34-.94-2.2v-2.07h-5.18v18.38h5.18v-2.11c0-.85.31-1.59.94-2.21.63-.62,1.38-.93,2.24-.93h9.49c.87,0,1.6.31,2.21.93.61.62.91,1.36.91,2.22v2.12Zm-9.58-34.86c0-.43-.22-.65-.65-.65h-18.64c-.91,0-1.76.17-2.56.52-.8.35-1.5.81-2.1,1.39-.6.58-1.08,1.27-1.42,2.07s-.52,1.65-.52,2.56v25.44c0,.43.22.65.65.65.17,0,.33-.05.49-.16.15-.11.23-.27.23-.49v-25.44c0-1.42.52-2.65,1.55-3.69,1.04-1.04,2.26-1.55,3.69-1.55h18.64c.43,0,.65-.21.65-.65Zm-24.53,33.91c0-.22-.08-.38-.23-.49-.15-.11-.31-.16-.49-.16-.43,0-.65.22-.65.65,0,.17.05.33.16.49.11.15.27.23.49.23.47,0,.71-.24.71-.71Zm22.13-14.24c0-.22-.07-.37-.19-.45-.13-.09-.26-.14-.39-.16-.13-.02-.26-.06-.39-.13-.13-.07-.19-.21-.19-.42v-2.07c0-.43-.23-.65-.68-.65s-.68.22-.68.65v2.07c0,.52.18.95.54,1.29.36.35.81.52,1.33.52.43,0,.65-.21.65-.65Zm8.67,11.84c0-.43-.22-.65-.65-.65h-8.74c-.52,0-.95.17-1.29.52s-.52.78-.52,1.29v1.62c0,.43.22.65.65.65.34,0,.54-.14.58-.42s.05-.6.03-.97c-.02-.37-.01-.69.03-.97.04-.28.21-.42.52-.42h8.74c.43,0,.65-.22.65-.65Zm-9.84,4.79c0-.43-.23-.65-.68-.65s-.68.22-.68.65.23.65.68.65.68-.22.68-.65Z"/>
    <path class="cls-2" d="m276.22,1102.81v31.45c0,1.47-.51,2.71-1.53,3.72-1.02,1.01-2.26,1.52-3.74,1.52h-5.26c-1.47,0-2.72-.51-3.74-1.52-1.02-1.01-1.53-2.25-1.53-3.72v-7.83h-5.24v7.83c0,1.47-.52,2.71-1.55,3.72-1.04,1.01-2.29,1.52-3.75,1.52h-5.18c-1.47,0-2.71-.51-3.72-1.52-1.01-1.01-1.52-2.25-1.52-3.72v-31.45c0-1.08.21-2.1.62-3.07.41-.97.97-1.81,1.69-2.52.71-.71,1.55-1.27,2.5-1.68.95-.41,1.97-.62,3.05-.62h21.01c1.08,0,2.11.21,3.08.62.97.41,1.81.97,2.53,1.68.71.71,1.28,1.55,1.69,2.52.41.97.62,2,.62,3.07Zm-9.58-5.96c0-.21-.08-.38-.23-.49-.15-.11-.31-.16-.49-.16h-18.64c-.91,0-1.76.17-2.56.52-.8.35-1.49.82-2.07,1.42-.58.6-1.05,1.31-1.39,2.1-.35.8-.52,1.65-.52,2.56v28.15c0,.17.05.33.16.49.11.15.27.23.49.23.43,0,.65-.24.65-.71v-28.15c0-1.47.51-2.72,1.52-3.75,1.01-1.04,2.25-1.55,3.72-1.55h18.64c.47,0,.71-.21.71-.65Zm-24.59,36.76c0-.43-.22-.65-.65-.65s-.65.22-.65.65.22.65.65.65.65-.22.65-.65Zm14.37-13.11c0-.45-.22-.68-.65-.68s-.65.23-.65.68.21.68.65.68.65-.23.65-.68Zm4.01-1.97v-5.24h-5.24v5.24h5.24Zm2.65,2.65v-7.9c0-.43-.24-.65-.71-.65-.43,0-.65.22-.65.65v6.54h-4.21c-.43,0-.65.23-.65.68s.22.68.65.68h5.57Zm3.24,16.38c0-.47-.22-.71-.65-.71-.73,0-1.35-.25-1.84-.74-.5-.5-.74-1.11-.74-1.84v-7.83c0-.47-.24-.71-.71-.71-.22,0-.38.08-.49.23-.11.15-.16.31-.16.49v7.83c0,1.12.38,2.06,1.13,2.82.75.75,1.69,1.13,2.82,1.13.43,0,.65-.22.65-.65Z"/>
    <path class="cls-2" d="m321.01,1100.15v34.11c0,3.5-1.75,5.24-5.24,5.24h-5.24c-3.5,0-5.24-1.75-5.24-5.24v-14.11l-2.7,10.03c-.17.6-.48,1.07-.93,1.39-.45.32-.98.49-1.58.49s-1.13-.17-1.58-.52c-.45-.34-.76-.8-.93-1.36l-2.77-10.03v14.11c0,3.5-1.73,5.24-5.2,5.24h-5.26c-3.55,0-5.33-1.75-5.33-5.24v-34.11c0-3.49,1.77-5.24,5.31-5.24h6.21c1.47,0,2.6.35,3.4,1.04.8.69,1.37,1.73,1.71,3.11.78,3.41,1.52,6.82,2.23,10.23.71,3.41,1.43,6.82,2.17,10.23.73-3.41,1.45-6.82,2.14-10.23.69-3.41,1.42-6.82,2.2-10.23.34-1.38.92-2.42,1.71-3.11.8-.69,1.93-1.04,3.4-1.04h6.28c3.5,0,5.24,1.75,5.24,5.24Zm-30.1-3.3c0-.43-.22-.65-.65-.65h-5.95c-1.12,0-2.07.38-2.85,1.13-.78.76-1.17,1.69-1.17,2.82v30.42c0,.17.04.33.14.49.09.15.25.23.48.23.5,0,.75-.21.75-.65v-30.48c0-.73.26-1.36.78-1.88.52-.52,1.14-.78,1.88-.78h5.95c.43,0,.65-.21.65-.65Zm-9.25,36.11c0-.43-.23-.65-.68-.65s-.68.22-.68.65.23.65.68.65.68-.22.68-.65Zm20.58-12.49c0-.43-.24-.65-.71-.65-.43,0-.65.22-.65.65s.22.65.65.65c.17,0,.33-.05.49-.16.15-.11.23-.27.23-.49Zm13.07-24.27h-5.83c-.91,0-1.71.29-2.43.87-.71.58-1.18,1.33-1.39,2.23-.04.26-.17.9-.39,1.91-.22,1.01-.48,2.22-.78,3.62-.3,1.4-.62,2.89-.94,4.47-.32,1.58-.63,3.03-.91,4.37-.28,1.34-.64,2.89-1.07,4.66,0,.22.08.39.23.52.15.13.33.19.55.19.26,0,.43-.17.52-.52l4.08-18.9c.13-.6.43-1.11.91-1.52.47-.41,1.01-.62,1.62-.62h5.76c.43,0,.65-.24.65-.71,0-.13-.06-.26-.19-.39s-.26-.19-.39-.19Z"/>
    <path class="cls-2" d="m360.81,1118.53c0,1.08-.21,2.09-.61,3.04-.41.95-.97,1.78-1.68,2.49-.71.71-1.55,1.27-2.52,1.68s-2,.61-3.07.61h-13.07v7.9c0,1.42-.52,2.65-1.55,3.69s-2.27,1.55-3.69,1.55h-5.31c-1.42,0-2.65-.52-3.69-1.55s-1.55-2.26-1.55-3.69v-34.11c0-1.42.52-2.65,1.55-3.69s2.27-1.55,3.69-1.55h23.62c1.08,0,2.1.21,3.07.62s1.81.97,2.52,1.68c.71.71,1.27,1.54,1.68,2.49.41.95.61,1.96.61,3.04v15.79Zm-12.04-21.68c0-.43-.22-.65-.65-.65h-18.83c-1.12,0-2.06.39-2.82,1.17-.76.78-1.13,1.7-1.13,2.78v29.25c0,.43.23.65.68.65s.68-.22.68-.65v-29.25c0-.73.25-1.36.74-1.88.5-.52,1.11-.78,1.84-.78h18.83c.43,0,.65-.21.65-.65Zm-22.07,34.88c0-.43-.23-.65-.68-.65s-.68.22-.68.65.23.65.68.65.68-.22.68-.65Zm14.37-11.26c0-.43-.22-.65-.65-.65s-.65.22-.65.65.22.65.65.65.65-.21.65-.65Zm4.01-1.94v-5.31h-5.24v5.31h5.24Zm2.59,2.59v-7.9c0-.43-.22-.65-.65-.65s-.65.22-.65.65v6.6h-4.21c-.43,0-.65.22-.65.65s.21.65.65.65h5.5Z"/>
    <path class="cls-2" d="m400.23,1100.15v31.46c0,1.08-.21,2.1-.62,3.07-.41.97-.97,1.81-1.68,2.52s-1.55,1.27-2.52,1.68c-.97.41-2,.62-3.07.62h-21.03c-1.08,0-2.09-.2-3.04-.62-.95-.41-1.78-.97-2.49-1.68s-1.27-1.55-1.68-2.52c-.41-.97-.62-2-.62-3.07v-31.46c0-1.47.51-2.71,1.52-3.72s2.25-1.52,3.72-1.52h5.24c1.47,0,2.71.51,3.72,1.52,1.01,1.01,1.52,2.26,1.52,3.73v31.51h5.24v-31.51c0-1.47.51-2.71,1.52-3.73,1.01-1.02,2.25-1.52,3.72-1.52h5.24c1.47,0,2.72.51,3.75,1.52,1.04,1.01,1.55,2.25,1.55,3.72Zm-25.63-3.3c0-.43-.22-.65-.65-.65h-5.24c-1.12,0-2.06.38-2.82,1.13-.75.76-1.13,1.69-1.13,2.82v26.21c0,.43.21.65.65.65s.65-.21.65-.65v-26.21c0-1.21.44-1.95,1.33-2.23.88-.28,1.87-.41,2.94-.39,1.08.02,2.06.05,2.95.1.88.04,1.33-.22,1.33-.78Zm-8.54,32.04c0-.43-.22-.65-.65-.65s-.65.22-.65.65c0,.17.05.33.16.49.11.15.27.23.49.23.43,0,.65-.24.65-.71Zm14.95,4.72c0-.43-.24-.65-.71-.65-.43,0-.65.22-.65.65s.21.65.65.65c.17,0,.33-.05.49-.16.15-.11.23-.27.23-.49Zm14.63-36.76c0-.21-.08-.38-.23-.49-.15-.11-.31-.16-.49-.16h-5.24c-1.08,0-2.01.39-2.78,1.17s-1.17,1.7-1.17,2.78v32.81h-3.43c-.48,0-.71.22-.71.65,0,.22.07.38.23.49.15.11.31.16.49.16h4.79v-34.11c0-.82.22-1.41.65-1.78.43-.37.96-.62,1.59-.74.62-.13,1.3-.17,2.04-.13.73.04,1.41.08,2.04.1.62.02,1.15,0,1.58-.07.43-.06.65-.29.65-.68Z"/>
    <path class="cls-2" d="m439.71,1126.47v5.16c0,1.08-.21,2.1-.61,3.07-.41.97-.97,1.81-1.68,2.52-.71.71-1.55,1.27-2.52,1.68-.97.41-2,.61-3.07.61h-24.92c-1.12,0-2.06-.37-2.81-1.12-.76-.75-1.13-1.68-1.13-2.79s.38-2.04,1.13-2.79c.75-.75,1.69-1.12,2.81-1.12h17.02v-5.24h-13.14c-1.12,0-2.16-.22-3.11-.65-.95-.43-1.77-1-2.46-1.71s-1.24-1.55-1.65-2.52-.61-2-.61-3.07v-15.73c0-1.08.2-2.09.61-3.04.41-.95.97-1.78,1.68-2.49s1.54-1.27,2.49-1.68c.95-.41,1.96-.62,3.04-.62h21.03c1.08,0,2.1.21,3.07.62s1.81.97,2.52,1.68,1.27,1.54,1.68,2.49c.41.95.61,1.96.61,3.04v2.65c0,1.08-.21,2.1-.61,3.07-.41.97-.97,1.81-1.68,2.52s-1.55,1.27-2.52,1.68c-.97.41-2,.62-3.07.62h-13.14v5.24h13.14c1.08,0,2.1.22,3.07.65.97.43,1.81,1,2.52,1.71s1.27,1.55,1.68,2.52c.41.97.61,1.99.61,3.06Zm-9.58-29.62c0-.43-.22-.65-.65-.65h-18.7c-.91,0-1.75.17-2.52.52-.78.35-1.47.82-2.07,1.42-.6.6-1.08,1.29-1.42,2.07-.35.78-.52,1.62-.52,2.52v12.49c0,.43.22.65.65.65s.65-.22.65-.65v-12.49c0-1.42.52-2.65,1.55-3.69s2.27-1.55,3.69-1.55h18.7c.43,0,.65-.21.65-.65Zm-24.59,21.1c0-.47-.22-.71-.65-.71-.22,0-.38.08-.49.23-.11.15-.16.31-.16.49,0,.43.22.65.65.65s.65-.21.65-.65Zm5.7,15.66c0-.43-.22-.65-.65-.65s-.65.22-.65.65.22.65.65.65.65-.22.65-.65Zm15.34.65v-5.37c0-.43-.24-.65-.71-.65-.43,0-.65.22-.65.65v4.08h-12.94c-.43,0-.65.22-.65.65s.22.65.65.65h14.3Zm-6.34-13.75c0-.45-.24-.68-.71-.68-.43,0-.65.23-.65.68s.22.68.65.68c.47,0,.71-.23.71-.68Zm11.58,0c0-.45-.22-.68-.65-.68h-9.45c-.47,0-.71.23-.71.68s.24.68.71.68h9.45c.43,0,.65-.23.65-.68Z"/>
  </g>
</svg>