<svg width="96" height="96" viewBox="0 0 96 96" fill="none" xmlns="http://www.w3.org/2000/svg">
<path d="M52 32C52 33.0609 51.5786 34.0783 50.8284 34.8284C50.0783 35.5786 49.0609 36 48 36C46.9391 36 45.9217 35.5786 45.1716 34.8284C44.4214 34.0783 44 33.0609 44 32C44 30.9391 44.4214 29.9217 45.1716 29.1716C45.9217 28.4214 46.9391 28 48 28C49.0609 28 50.0783 28.4214 50.8284 29.1716C51.5786 29.9217 52 30.9391 52 32ZM40 47C40 46.2043 40.3161 45.4413 40.8787 44.8787C41.4413 44.3161 42.2044 44 43 44H49C49.7956 44 50.5587 44.3161 51.1213 44.8787C51.6839 45.4413 52 46.2043 52 47V64H55C55.7956 64 56.5587 64.3161 57.1213 64.8787C57.6839 65.4413 58 66.2043 58 67C58 67.7956 57.6839 68.5587 57.1213 69.1213C56.5587 69.6839 55.7956 70 55 70H43C42.2044 70 41.4413 69.6839 40.8787 69.1213C40.3161 68.5587 40 67.7956 40 67C40 66.2043 40.3161 65.4413 40.8787 64.8787C41.4413 64.3161 42.2044 64 43 64H46V50H43C42.2044 50 41.4413 49.6839 40.8787 49.1213C40.3161 48.5587 40 47.7956 40 47Z" fill="#D4DEC7" stroke="#D4DEC7" stroke-width="0.5"/>
<path d="M48 4C72.3 4 92 23.7 92 48C92 72.3 72.3 92 48 92C23.7 92 4 72.3 4 48C4 23.7 23.7 4 48 4ZM10 48C10 58.0782 14.0036 67.7437 21.1299 74.8701C28.2563 81.9964 37.9218 86 48 86C58.0782 86 67.7437 81.9964 74.8701 74.8701C81.9964 67.7437 86 58.0782 86 48C86 37.9218 81.9964 28.2563 74.8701 21.1299C67.7437 14.0036 58.0782 10 48 10C37.9218 10 28.2563 14.0036 21.1299 21.1299C14.0036 28.2563 10 37.9218 10 48Z" fill="#D4DEC7" stroke="#D4DEC7" stroke-width="0.5"/>
</svg>
