<svg width="112" height="112" viewBox="0 0 112 112" fill="none" xmlns="http://www.w3.org/2000/svg">
<path d="M32.6667 56.0001C32.6667 58.4754 31.6833 60.8494 29.933 62.5997C28.1827 64.3501 25.8087 65.3334 23.3333 65.3334C20.858 65.3334 18.484 64.3501 16.7337 62.5997C14.9833 60.8494 14 58.4754 14 56.0001C14 53.5247 14.9833 51.1508 16.7337 49.4004C18.484 47.6501 20.858 46.6667 23.3333 46.6667C25.8087 46.6667 28.1827 47.6501 29.933 49.4004C31.6833 51.1508 32.6667 53.5247 32.6667 56.0001ZM65.3333 56.0001C65.3333 58.4754 64.35 60.8494 62.5997 62.5997C60.8493 64.3501 58.4754 65.3334 56 65.3334C53.5246 65.3334 51.1507 64.3501 49.4003 62.5997C47.65 60.8494 46.6667 58.4754 46.6667 56.0001C46.6667 53.5247 47.65 51.1508 49.4003 49.4004C51.1507 47.6501 53.5246 46.6667 56 46.6667C58.4754 46.6667 60.8493 47.6501 62.5997 49.4004C64.35 51.1508 65.3333 53.5247 65.3333 56.0001ZM98 56.0001C98 58.4754 97.0167 60.8494 95.2663 62.5997C93.516 64.3501 91.142 65.3334 88.6667 65.3334C86.1913 65.3334 83.8173 64.3501 82.067 62.5997C80.3167 60.8494 79.3333 58.4754 79.3333 56.0001C79.3333 53.5247 80.3167 51.1508 82.067 49.4004C83.8173 47.6501 86.1913 46.6667 88.6667 46.6667C91.142 46.6667 93.516 47.6501 95.2663 49.4004C97.0167 51.1508 98 53.5247 98 56.0001Z" fill="#D4DEC7"/>
</svg>
